<?xml version="1.0" encoding="UTF-8"?>
<svg version="1.1" xmlns="http://www.w3.org/2000/svg" width="774" height="716">
<path d="M0 0 C0.66 0 1.32 0 2 0 C3.09399414 1.50610352 3.09399414 1.50610352 4.28515625 3.62890625 C4.72931885 4.41031982 5.17348145 5.1917334 5.63110352 5.99682617 C6.10346436 6.84349854 6.5758252 7.6901709 7.0625 8.5625 C8.05130697 10.29992124 9.04090172 12.03689436 10.03125 13.7734375 C10.52753906 14.64838867 11.02382813 15.52333984 11.53515625 16.42480469 C13.68091471 20.19704807 15.85718281 23.9498066 18.0625 27.6875 C18.43189697 28.32824463 18.80129395 28.96898926 19.18188477 29.62915039 C20.06517046 31.12076984 21.02510216 32.56657878 22 34 C22.66 34 23.32 34 24 34 C24.07476563 34.66515625 24.14953125 35.3303125 24.2265625 36.015625 C25.27078004 40.04482803 27.22245359 43.21464688 29.375 46.75 C29.77460937 47.43449219 30.17421875 48.11898437 30.5859375 48.82421875 C32.92462585 52.91356463 32.92462585 52.91356463 37 55 C37.11520996 55.73379883 37.23041992 56.46759766 37.34912109 57.22363281 C38.01291504 60.05508998 38.91942194 61.94256198 40.4140625 64.421875 C40.9198584 65.26919189 41.4256543 66.11650879 41.94677734 66.98950195 C42.77749756 68.35594849 42.77749756 68.35594849 43.625 69.75 C44.20330566 70.71446045 44.78161133 71.6789209 45.37744141 72.67260742 C46.61371871 74.73268385 47.85323797 76.79081761 49.09570312 78.84716797 C50.9617855 81.93673051 52.81842766 85.03175025 54.671875 88.12890625 C57.15141043 92.27195652 59.63792154 96.41069977 62.12890625 100.546875 C64.4880581 104.46892719 66.83135787 108.3995695 69.15496826 112.34272766 C70.19887546 114.11353752 71.24571391 115.88258059 72.29345703 117.65112305 C73.61932248 119.89130659 74.93950047 122.13486797 76.25341797 124.38208008 C77.14311279 125.88097778 77.14311279 125.88097778 78.05078125 127.41015625 C78.57325439 128.29840088 79.09572754 129.18664551 79.6340332 130.10180664 C80.08480225 130.72821045 80.53557129 131.35461426 81 132 C81.66 132 82.32 132 83 132 C83.08378906 132.68707031 83.16757812 133.37414062 83.25390625 134.08203125 C84.18263655 137.7142906 85.93963499 140.56517291 87.9375 143.6875 C88.29779297 144.26822266 88.65808594 144.84894531 89.02929688 145.44726562 C91.80087347 149.95444512 91.80087347 149.95444512 96 153 C96.185625 154.051875 96.185625 154.051875 96.375 155.125 C96.96215258 157.82590186 97.67371765 159.35337106 99.0625 161.6875 C101 165 101 165 101 167 C152.48 167 203.96 167 257 167 C257 337.61 257 508.22 257 684 C1.58 684 -253.84 684 -517 684 C-517 598.53 -517 513.06 -517 425 C-482.35 424.67 -447.7 424.34 -412 424 C-446.65 424 -481.3 424 -517 424 C-517 423.67 -517 423.34 -517 423 C-483.67 422.67 -450.34 422.34 -416 422 C-419.96 420.35 -423.92 418.7 -428 417 C-431.04128042 415.36809343 -434.02492513 413.73434858 -437 412 C-437.66 411.67 -438.32 411.34 -439 411 C-440.11851687 409.88148313 -441.23301901 408.75878091 -442.33203125 407.62109375 C-444.04536811 405.9156758 -444.04536811 405.9156758 -446.19921875 404.16015625 C-463.039059 389.963933 -473.66545447 368.87733906 -476 347 C-477.18556975 326.78852056 -473.60054678 307.19313369 -462.98046875 289.69921875 C-461.83998885 287.85368556 -461.83998885 287.85368556 -461 285 C-460.01 284.67 -459.02 284.34 -458 284 C-456.47107743 281.7371946 -455.21932223 279.50130795 -454.125 277 C-452.50907616 274.12724651 -450.46367015 272.17037608 -448 270 C-446.67405895 269.63837971 -445.34061543 269.30271961 -444 269 C-442.64567325 267.68799596 -441.31266518 266.35368596 -440 265 C-438.67243803 264.32191339 -437.33807793 263.65709184 -436 263 C-435.236875 262.49984375 -434.47375 261.9996875 -433.6875 261.484375 C-415.25887634 249.59148415 -391.58851906 246.2210284 -370.1875 250.1875 C-348.24526431 255.27828723 -327.09300678 267.1386297 -314.4375 286.375 C-313.62127765 287.73537058 -312.82762866 289.10988355 -312.0703125 290.50390625 C-310.98419806 292.33169655 -310.98419806 292.33169655 -308 293 C-307.88398438 293.86625 -307.76796875 294.7325 -307.6484375 295.625 C-306.99587062 299.02149267 -305.96427031 301.81821842 -304.625 305 C-296.54852963 325.83495254 -295.81013965 350.43068033 -304.73046875 371.2109375 C-316.04788788 395.73008264 -333.17362798 410.08681399 -357 422 C-309.975 422.495 -309.975 422.495 -262 423 C-262 338.85 -262 254.7 -262 168 C-261.67 168 -261.34 168 -261 168 C-261 252.48 -261 336.96 -261 424 C-295.65 424 -330.3 424 -366 424 C-313.53 424.495 -313.53 424.495 -260 425 C-260.00785522 413.29233154 -260.00785522 413.29233154 -260.01586914 401.34814453 C-260.031906 376.39846588 -260.04303682 351.44878736 -260.05106533 326.49910492 C-260.05231609 322.62619363 -260.05361041 318.75328236 -260.05493164 314.88037109 C-260.05532511 313.72379011 -260.05532511 313.72379011 -260.05572652 312.54384385 C-260.06008241 300.04539691 -260.06796952 287.54695455 -260.0771528 275.04851033 C-260.08649158 262.23190031 -260.09205609 249.4152927 -260.09408849 236.59867942 C-260.09546325 228.68485037 -260.09981132 220.77103426 -260.10791647 212.85720919 C-260.11380808 206.79739938 -260.11445839 200.73760079 -260.11310768 194.67778778 C-260.11338402 192.18561345 -260.11538927 189.69343866 -260.11920547 187.20126724 C-260.12414235 183.8125553 -260.12299828 180.42389987 -260.12025452 177.03518677 C-260.12462378 175.5381283 -260.12462378 175.5381283 -260.12908131 174.01082623 C-260.12709026 173.10812807 -260.12509921 172.20542992 -260.12304783 171.27537727 C-260.12342755 170.49239395 -260.12380727 169.70941063 -260.1241985 168.90270054 C-260 167 -260 167 -259 165 C-258.1888527 165.00867316 -257.3777054 165.01734632 -256.54197788 165.02628231 C-236.78575597 165.23234761 -217.03053439 165.35522241 -197.27323246 165.38603115 C-187.71842889 165.40292716 -178.16529509 165.44775514 -168.61108398 165.55883789 C-160.28136827 165.65561254 -151.95332172 165.69947192 -143.62303632 165.68036038 C-139.21315725 165.67207643 -134.80693601 165.68989596 -130.39772224 165.77114677 C-126.24192459 165.84689028 -122.09194498 165.85155589 -117.93579865 165.80301666 C-116.4155797 165.79754859 -114.89501147 165.81748559 -113.37553978 165.86545753 C-108.60703715 166.00706786 -104.48629451 165.84240945 -100 164 C-96.25388223 160.27975457 -94.02644473 155.55578648 -91.8548125 150.80554688 C-90.6757632 148.31514252 -89.23559992 146.02041424 -87.75 143.703125 C-87.28722656 142.95289063 -86.82445312 142.20265625 -86.34765625 141.4296875 C-85.41960908 139.92867208 -84.48981913 138.42873324 -83.55859375 136.9296875 C-82.87990234 135.82753906 -82.87990234 135.82753906 -82.1875 134.703125 C-81.59001953 133.73874512 -81.59001953 133.73874512 -80.98046875 132.75488281 C-79.84888296 130.85773759 -79.84888296 130.85773759 -79 128 C-78.02040898 126.65160124 -77.01765061 125.31991099 -76 124 C-73.75404327 120.55751374 -71.60242439 117.05638788 -69.4375 113.5625 C-68.84775391 112.62083984 -68.25800781 111.67917969 -67.65039062 110.70898438 C-66.80057617 109.3390332 -66.80057617 109.3390332 -65.93359375 107.94140625 C-65.41853271 107.11326416 -64.90347168 106.28512207 -64.37280273 105.43188477 C-62.47799785 102.0752866 -61.21640199 98.64920596 -60 95 C-59.34 95 -58.68 95 -58 95 C-56.6078359 93.15824115 -56.6078359 93.15824115 -55.25 90.765625 C-54.7240625 89.88132812 -54.198125 88.99703125 -53.65625 88.0859375 C-53.1096875 87.15007812 -52.563125 86.21421875 -52 85.25 C-51.18015625 83.86941406 -51.18015625 83.86941406 -50.34375 82.4609375 C-48.1133945 78.68901276 -45.92072709 74.94043903 -44 71 C-43 69 -43 69 -41.16259766 66.73413086 C-37.41320046 61.99383969 -34.47641779 56.74044177 -31.375 51.5625 C-30.694375 50.44294922 -30.01375 49.32339844 -29.3125 48.16992188 C-28.66023438 47.08388672 -28.00796875 45.99785156 -27.3359375 44.87890625 C-26.74345215 43.8947876 -26.1509668 42.91066895 -25.54052734 41.89672852 C-23.99233124 38.98558005 -22.94780821 36.15244166 -22 33 C-21.34 33 -20.68 33 -20 33 C-18.59139531 31.14199779 -18.59139531 31.14199779 -17.21484375 28.73046875 C-16.68439453 27.84166016 -16.15394531 26.95285156 -15.60742188 26.03710938 C-14.78081055 24.62655273 -14.78081055 24.62655273 -13.9375 23.1875 C-13.10508789 21.7943457 -13.10508789 21.7943457 -12.25585938 20.37304688 C-9.2428557 15.36767229 -9.2428557 15.36767229 -7 10 C-5.67744688 8.32476605 -4.34294481 6.65893182 -3 5 C-2.46375 4.071875 -1.9275 3.14375 -1.375 2.1875 C-0.694375 1.1046875 -0.694375 1.1046875 0 0 Z M-362 422 C-358 423 -358 423 -358 423 Z " fill="#5CD942" transform="translate(517,32)"/>
<path d="M0 0 C0.33 0 0.66 0 1 0 C1 84.48 1 168.96 1 256 C-33.65 256 -68.3 256 -104 256 C-51.53 256.495 -51.53 256.495 2 257 C2 342.47 2 427.94 2 516 C-82.81 516 -167.62 516 -255 516 C-255 430.53 -255 345.06 -255 257 C-220.35 256.67 -185.7 256.34 -150 256 C-184.65 256 -219.3 256 -255 256 C-255 255.67 -255 255.34 -255 255 C-221.67 254.67 -188.34 254.34 -154 254 C-157.96 252.35 -161.92 250.7 -166 249 C-169.04128042 247.36809343 -172.02492513 245.73434858 -175 244 C-175.66 243.67 -176.32 243.34 -177 243 C-178.11851687 241.88148313 -179.23301901 240.75878091 -180.33203125 239.62109375 C-182.04536811 237.9156758 -182.04536811 237.9156758 -184.19921875 236.16015625 C-201.039059 221.963933 -211.66545447 200.87733906 -214 179 C-215.18556975 158.78852056 -211.60054678 139.19313369 -200.98046875 121.69921875 C-199.83998885 119.85368556 -199.83998885 119.85368556 -199 117 C-198.01 116.67 -197.02 116.34 -196 116 C-194.47107743 113.7371946 -193.21932223 111.50130795 -192.125 109 C-190.50907616 106.12724651 -188.46367015 104.17037608 -186 102 C-184.67405895 101.63837971 -183.34061543 101.30271961 -182 101 C-180.64567325 99.68799596 -179.31266518 98.35368596 -178 97 C-176.67243803 96.32191339 -175.33807793 95.65709184 -174 95 C-173.236875 94.49984375 -172.47375 93.9996875 -171.6875 93.484375 C-153.25887634 81.59148415 -129.58851906 78.2210284 -108.1875 82.1875 C-86.24526431 87.27828723 -65.09300678 99.1386297 -52.4375 118.375 C-51.62127765 119.73537058 -50.82762866 121.10988355 -50.0703125 122.50390625 C-48.98419806 124.33169655 -48.98419806 124.33169655 -46 125 C-45.88398438 125.86625 -45.76796875 126.7325 -45.6484375 127.625 C-44.99587062 131.02149267 -43.96427031 133.81821842 -42.625 137 C-34.54852963 157.83495254 -33.81013965 182.43068033 -42.73046875 203.2109375 C-54.04788788 227.73008264 -71.17362798 242.08681399 -95 254 C-47.975 254.495 -47.975 254.495 0 255 C0 170.85 0 86.7 0 0 Z M-100 254 C-96 255 -96 255 -96 255 Z " fill="#5BDA41" transform="translate(255,200)"/>
<path d="M0 0 C85.14 0 170.28 0 258 0 C258 85.14 258 170.28 258 258 C172.86 258 87.72 258 0 258 C0 172.86 0 87.72 0 0 Z " fill="#3D82FA" transform="translate(516,458)"/>
<path d="M0 0 C85.14 0 170.28 0 258 0 C258 85.14 258 170.28 258 258 C172.86 258 87.72 258 0 258 C0 172.86 0 87.72 0 0 Z " fill="#FE5824" transform="translate(258,458)"/>
<path d="M0 0 C0.33 0 0.66 0 1 0 C1 84.48 1 168.96 1 256 C-33.65 256 -68.3 256 -104 256 C-107.63 256.66 -111.26 257.32 -115 258 C-118.47455093 258.17831658 -121.84485723 258.28169209 -125.3125 258.25 C-126.14716797 258.25773437 -126.98183594 258.26546875 -127.84179688 258.2734375 C-132.62565607 258.25897383 -137.11825684 257.8342542 -141.82739258 256.99560547 C-152.61329016 255.42354835 -163.46020646 255.75318907 -174.3359375 255.8046875 C-176.67005288 255.80842456 -179.00416984 255.81126825 -181.33828735 255.81326294 C-187.43734176 255.82084482 -193.53629866 255.8404457 -199.63531494 255.8626709 C-205.87665488 255.88324753 -212.11801081 255.89228977 -218.359375 255.90234375 C-230.57295916 255.92369741 -242.78647142 255.95776649 -255 256 C-255 255.67 -255 255.34 -255 255 C-221.67 254.67 -188.34 254.34 -154 254 C-157.96 252.35 -161.92 250.7 -166 249 C-169.04128042 247.36809343 -172.02492513 245.73434858 -175 244 C-175.66 243.67 -176.32 243.34 -177 243 C-178.11851687 241.88148313 -179.23301901 240.75878091 -180.33203125 239.62109375 C-182.04536811 237.9156758 -182.04536811 237.9156758 -184.19921875 236.16015625 C-201.039059 221.963933 -211.66545447 200.87733906 -214 179 C-215.18556975 158.78852056 -211.60054678 139.19313369 -200.98046875 121.69921875 C-199.83998885 119.85368556 -199.83998885 119.85368556 -199 117 C-198.01 116.67 -197.02 116.34 -196 116 C-194.47107743 113.7371946 -193.21932223 111.50130795 -192.125 109 C-190.50907616 106.12724651 -188.46367015 104.17037608 -186 102 C-184.67405895 101.63837971 -183.34061543 101.30271961 -182 101 C-180.64567325 99.68799596 -179.31266518 98.35368596 -178 97 C-176.67243803 96.32191339 -175.33807793 95.65709184 -174 95 C-173.236875 94.49984375 -172.47375 93.9996875 -171.6875 93.484375 C-153.25887634 81.59148415 -129.58851906 78.2210284 -108.1875 82.1875 C-86.24526431 87.27828723 -65.09300678 99.1386297 -52.4375 118.375 C-51.62127765 119.73537058 -50.82762866 121.10988355 -50.0703125 122.50390625 C-48.98419806 124.33169655 -48.98419806 124.33169655 -46 125 C-45.88398438 125.86625 -45.76796875 126.7325 -45.6484375 127.625 C-44.99587062 131.02149267 -43.96427031 133.81821842 -42.625 137 C-34.54852963 157.83495254 -33.81013965 182.43068033 -42.73046875 203.2109375 C-54.04788788 227.73008264 -71.17362798 242.08681399 -95 254 C-47.975 254.495 -47.975 254.495 0 255 C0 170.85 0 86.7 0 0 Z M-100 254 C-96 255 -96 255 -96 255 Z " fill="#FB5A27" transform="translate(255,200)"/>
<path d="M0 0 C52.14 0 104.28 0 158 0 C156.92253181 4.30987277 155.07420864 7.55631476 152.8125 11.3125 C152.37397705 12.04887695 151.9354541 12.78525391 151.48364258 13.54394531 C149.99646054 16.03379992 148.49959662 18.51760373 147 21 C146.46084961 21.89315918 145.92169922 22.78631836 145.36621094 23.70654297 C138.68151023 34.76320052 131.91591875 45.76849176 125.09960938 56.74438477 C120.21466797 64.62391226 115.40622649 72.5493107 110.60247803 80.47845459 C104.71278211 90.19851913 98.77431269 99.88716893 92.80932617 109.5612793 C88.51632025 116.52687886 84.2480198 123.50688301 80 130.5 C75.09143755 138.58050648 70.14961822 146.63977611 65.1875 154.6875 C59.22651942 164.35676501 53.31433484 174.05432584 47.42807007 183.76913452 C41.67494907 193.26244756 35.87157776 202.72372456 30.04370117 212.17138672 C24.20739048 221.64173591 18.4306465 231.14761701 12.66992188 240.6640625 C11.36270666 242.82216516 10.05314308 244.97884792 8.74072266 247.13378906 C7.64227272 248.94245698 6.55222264 250.75627805 5.47412109 252.57714844 C4.36909319 254.41765128 3.1933189 256.21547558 2 258 C1.34 258 0.68 258 0 258 C0 172.86 0 87.72 0 0 Z " fill="#3D83FA" transform="translate(257,199)"/>
<path d="M0 0 C51.15 0 102.3 0 155 0 C155 85.14 155 170.28 155 258 C151.97642727 254.22053408 149.54555745 250.771272 147.09375 246.65234375 C146.73264633 246.04813095 146.37154266 245.44391815 145.99949646 244.82139587 C144.8295713 242.86211759 143.66481328 240.89982081 142.5 238.9375 C141.68340804 237.56829307 140.86642883 236.19931703 140.04907227 234.83056641 C138.42951243 232.11744318 136.81173953 229.40326978 135.19580078 226.68798828 C132.45210283 222.07821709 129.69729612 217.47514952 126.9375 212.875 C126.47923828 212.11050537 126.02097656 211.34601074 125.54882812 210.55834961 C120.85856049 202.74417765 116.12158586 194.95838782 111.38796997 187.17044067 C104.88520346 176.47083669 98.42923574 165.7439401 92 155 C84.2048651 141.976613 76.38581648 128.96865574 68.5 116 C59.99598709 102.01430378 51.57354192 87.98040522 43.16601562 73.93652344 C41.31969309 70.85310594 39.47263416 67.77013173 37.625 64.6875 C37.01269531 63.66591797 36.40039062 62.64433594 35.76953125 61.59179688 C31.36030237 54.24460987 26.91679435 46.91884111 22.46206665 39.59921265 C16.75118595 30.21275712 11.05823994 20.81580489 5.4375 11.375 C4.88304199 10.45050049 4.32858398 9.52600098 3.75732422 8.57348633 C3.25861816 7.73197021 2.75991211 6.8904541 2.24609375 6.0234375 C1.80966553 5.29044434 1.3732373 4.55745117 0.92358398 3.80224609 C0 2 0 2 0 0 Z " fill="#FE5824" transform="translate(619,199)"/>
<path d="M0 0 C51.15 0 102.3 0 155 0 C155 0.33 155 0.66 155 1 C103.85 1 52.7 1 0 1 C0 0.67 0 0.34 0 0 Z " fill="#FE403F" transform="translate(619,197)"/>
<path d="M0 0 C0.66 0.33 1.32 0.66 2 1 C-0.19471406 5.51135667 -2.41173718 7.06273348 -7 9 C-5.44499019 5.18315774 -2.96404505 2.80804268 0 0 Z " fill="#FE631A" transform="translate(69,302)"/>
<path d="M0 0 C0.33 0 0.66 0 1 0 C1 7.26 1 14.52 1 22 C0.67 22 0.34 22 0 22 C0 14.74 0 7.48 0 0 Z " fill="#FF4B34" transform="translate(219,359)"/>
<path d="M0 0 C0.33 0 0.66 0 1 0 C1 6.27 1 12.54 1 19 C0.67 19 0.34 19 0 19 C0 12.73 0 6.46 0 0 Z " fill="#FF4D32" transform="translate(39,360)"/>
<path d="M0 0 C6.27 0 12.54 0 19 0 C19 0.33 19 0.66 19 1 C12.73 1 6.46 1 0 1 C0 0.67 0 0.34 0 0 Z " fill="#FF512E" transform="translate(120,279)"/>
<path d="M0 0 C0.33 0 0.66 0 1 0 C1 2.31 1 4.62 1 7 C0.67 7 0.34 7 0 7 C0 4.69 0 2.38 0 0 Z " fill="#FF4940" transform="translate(40,379)"/>
<path d="M0 0 C0.33 0 0.66 0 1 0 C1 2.31 1 4.62 1 7 C0.67 7 0.34 7 0 7 C0 4.69 0 2.38 0 0 Z " fill="#FF4936" transform="translate(40,353)"/>
<path d="M0 0 C2.31 0 4.62 0 7 0 C7 0.33 7 0.66 7 1 C4.69 1 2.38 1 0 1 C0 0.67 0 0.34 0 0 Z " fill="#FF4936" transform="translate(139,280)"/>
<path d="M0 0 C2.31 0 4.62 0 7 0 C7 0.33 7 0.66 7 1 C4.69 1 2.38 1 0 1 C0 0.67 0 0.34 0 0 Z " fill="#FF4936" transform="translate(113,280)"/>
<path d="M0 0 C0.33 0 0.66 0 1 0 C1 1.98 1 3.96 1 6 C0.67 6 0.34 6 0 6 C0 4.02 0 2.04 0 0 Z " fill="#FF4040" transform="translate(218,381)"/>
<path d="M0 0 C0.33 0 0.66 0 1 0 C1 1.98 1 3.96 1 6 C0.67 6 0.34 6 0 6 C0 4.02 0 2.04 0 0 Z " fill="#FF4040" transform="translate(218,352)"/>
<path d="M0 0 C1 4 1 4 1 4 Z " fill="#FF5030" transform="translate(42,390)"/>
<path d="M0 0 C1 4 1 4 1 4 Z " fill="#FF552A" transform="translate(41,386)"/>
<path d="M0 0 C1 4 1 4 1 4 Z " fill="#FF552A" transform="translate(41,349)"/>
<path d="M0 0 C1 4 1 4 1 4 Z " fill="#FF5030" transform="translate(42,345)"/>
<path d="M0 0 C4 1 4 1 4 1 Z " fill="#FF5030" transform="translate(150,282)"/>
<path d="M0 0 C4 1 4 1 4 1 Z " fill="#FF5030" transform="translate(105,282)"/>
<path d="M0 0 C4 1 4 1 4 1 Z " fill="#FF551A" transform="translate(146,281)"/>
<path d="M0 0 C4 1 4 1 4 1 Z " fill="#FF552A" transform="translate(109,281)"/>
<path d="M0 0 C0 3 0 3 0 3 Z " fill="#50CF50" transform="translate(493,68)"/>
<path d="" fill="#FF552A" transform="translate(0,0)"/>
<path d="M0 0 C2 1 2 1 2 1 Z " fill="#FF8000" transform="translate(164,452)"/>
<path d="M0 0 C2 1 2 1 2 1 Z " fill="#FF8000" transform="translate(91,451)"/>
<path d="M0 0 C2 1 2 1 2 1 Z " fill="#FF6020" transform="translate(168,450)"/>
<path d="M0 0 C2 1 2 1 2 1 Z " fill="#FF6020" transform="translate(89,450)"/>
<path d="M0 0 C2 1 2 1 2 1 Z " fill="#FF4040" transform="translate(170,449)"/>
<path d="M0 0 C2 1 2 1 2 1 Z " fill="#FF4040" transform="translate(87,449)"/>
<path d="M0 0 C2 1 2 1 2 1 Z " fill="#FF6A15" transform="translate(172,448)"/>
<path d="M0 0 C2 1 2 1 2 1 Z " fill="#FF4040" transform="translate(84,447)"/>
<path d="M0 0 C2 1 2 1 2 1 Z " fill="#FF4040" transform="translate(175,446)"/>
<path d="M0 0 C2 1 2 1 2 1 Z " fill="#FF6A15" transform="translate(82,446)"/>
<path d="" fill="#FF8000" transform="translate(0,0)"/>
<path d="" fill="#FF4040" transform="translate(0,0)"/>
<path d="" fill="#FF4040" transform="translate(0,0)"/>
<path d="" fill="#FF7010" transform="translate(0,0)"/>
<path d="" fill="#FF4040" transform="translate(0,0)"/>
<path d="" fill="#FF6020" transform="translate(0,0)"/>
<path d="" fill="#FF8000" transform="translate(0,0)"/>
<path d="" fill="#FF4040" transform="translate(0,0)"/>
<path d="" fill="#FF6020" transform="translate(0,0)"/>
<path d="" fill="#FF4040" transform="translate(0,0)"/>
<path d="" fill="#FF6020" transform="translate(0,0)"/>
<path d="" fill="#FF4040" transform="translate(0,0)"/>
<path d="" fill="#FF6020" transform="translate(0,0)"/>
<path d="" fill="#FF4040" transform="translate(0,0)"/>
<path d="" fill="#FF6020" transform="translate(0,0)"/>
<path d="" fill="#FF4040" transform="translate(0,0)"/>
<path d="" fill="#FF6020" transform="translate(0,0)"/>
<path d="" fill="#FF6020" transform="translate(0,0)"/>
<path d="" fill="#FF4040" transform="translate(0,0)"/>
<path d="M0 0 C2 1 2 1 2 1 Z " fill="#FF4040" transform="translate(81,293)"/>
<path d="M0 0 C2 1 2 1 2 1 Z " fill="#FF4040" transform="translate(173,291)"/>
<path d="M0 0 C2 1 2 1 2 1 Z " fill="#FF6A15" transform="translate(84,291)"/>
<path d="M0 0 C2 1 2 1 2 1 Z " fill="#FF4040" transform="translate(86,290)"/>
<path d="M0 0 C2 1 2 1 2 1 Z " fill="#FF6020" transform="translate(170,289)"/>
<path d="M0 0 C2 1 2 1 2 1 Z " fill="#FF8000" transform="translate(168,288)"/>
<path d="M0 0 C2 1 2 1 2 1 Z " fill="#FF6020" transform="translate(154,283)"/>
<path d="M0 0 C2 1 2 1 2 1 Z " fill="#FF6020" transform="translate(103,283)"/>
<path d="" fill="#60DF60" transform="translate(0,0)"/>
<path d="" fill="#40BF40" transform="translate(0,0)"/>
<path d="" fill="#40BF40" transform="translate(0,0)"/>
<path d="" fill="#60DF60" transform="translate(0,0)"/>
<path d="" fill="#6AEA6A" transform="translate(0,0)"/>
<path d="" fill="#60DF60" transform="translate(0,0)"/>
<path d="" fill="#40BF40" transform="translate(0,0)"/>
<path d="" fill="#40BF40" transform="translate(0,0)"/>
<path d="" fill="#60DF60" transform="translate(0,0)"/>
<path d="" fill="#40BF40" transform="translate(0,0)"/>
<path d="" fill="#40BF40" transform="translate(0,0)"/>
<path d="" fill="#40BF40" transform="translate(0,0)"/>
<path d="" fill="#60DF20" transform="translate(0,0)"/>
<path d="" fill="#80FF80" transform="translate(0,0)"/>
<path d="" fill="#60DF60" transform="translate(0,0)"/>
<path d="" fill="#40BF40" transform="translate(0,0)"/>
<path d="" fill="#4ACA4A" transform="translate(0,0)"/>
<path d="" fill="#60DF60" transform="translate(0,0)"/>
<path d="" fill="#60DF60" transform="translate(0,0)"/>
<path d="" fill="#6AEA6A" transform="translate(0,0)"/>
<path d="" fill="#80FF80" transform="translate(0,0)"/>
<path d="" fill="#6AEA6A" transform="translate(0,0)"/>
<path d="" fill="#6AEA4A" transform="translate(0,0)"/>
<path d="" fill="#6AEA6A" transform="translate(0,0)"/>
<path d="" fill="#6AEA6A" transform="translate(0,0)"/>
<path d="" fill="#4ACA4A" transform="translate(0,0)"/>
<path d="" fill="#40BF40" transform="translate(0,0)"/>
<path d="" fill="#60DF60" transform="translate(0,0)"/>
<path d="" fill="#60DF60" transform="translate(0,0)"/>
<path d="" fill="#40BF40" transform="translate(0,0)"/>
<path d="" fill="#60DF60" transform="translate(0,0)"/>
<path d="" fill="#40BF40" transform="translate(0,0)"/>
<path d="" fill="#60DF60" transform="translate(0,0)"/>
<path d="" fill="#40BF40" transform="translate(0,0)"/>
<path d="" fill="#40BF40" transform="translate(0,0)"/>
<path d="" fill="#40BF40" transform="translate(0,0)"/>
<path d="" fill="#60DF60" transform="translate(0,0)"/>
<path d="" fill="#40BF40" transform="translate(0,0)"/>
<path d="" fill="#40BF40" transform="translate(0,0)"/>
<path d="" fill="#60DF60" transform="translate(0,0)"/>
<path d="" fill="#40BF40" transform="translate(0,0)"/>
<path d="" fill="#6AEA6A" transform="translate(0,0)"/>
<path d="" fill="#40BF40" transform="translate(0,0)"/>
<path d="" fill="#40BF40" transform="translate(0,0)"/>
<path d="" fill="#FF8000" transform="translate(0,0)"/>
<path d="" fill="#FF8000" transform="translate(0,0)"/>
<path d="" fill="#FF4040" transform="translate(0,0)"/>
<path d="" fill="#FF552B" transform="translate(0,0)"/>
<path d="" fill="#FF4040" transform="translate(0,0)"/>
<path d="" fill="#FF4040" transform="translate(0,0)"/>
<path d="" fill="#FF8000" transform="translate(0,0)"/>
<path d="" fill="#FF8000" transform="translate(0,0)"/>
<path d="" fill="#FF8000" transform="translate(0,0)"/>
<path d="" fill="#FF8000" transform="translate(0,0)"/>
<path d="" fill="#FF8000" transform="translate(0,0)"/>
<path d="" fill="#FF8000" transform="translate(0,0)"/>
<path d="" fill="#FF8000" transform="translate(0,0)"/>
<path d="" fill="#FF4040" transform="translate(0,0)"/>
<path d="" fill="#FF8000" transform="translate(0,0)"/>
<path d="" fill="#FF4040" transform="translate(0,0)"/>
<path d="" fill="#FF4040" transform="translate(0,0)"/>
<path d="" fill="#FF4040" transform="translate(0,0)"/>
<path d="" fill="#FF4040" transform="translate(0,0)"/>
<path d="" fill="#FF4040" transform="translate(0,0)"/>
<path d="" fill="#FF4040" transform="translate(0,0)"/>
<path d="" fill="#FF4040" transform="translate(0,0)"/>
<path d="" fill="#FF4040" transform="translate(0,0)"/>
<path d="" fill="#FF4040" transform="translate(0,0)"/>
<path d="" fill="#FF4040" transform="translate(0,0)"/>
<path d="" fill="#FF4040" transform="translate(0,0)"/>
<path d="" fill="#FF4040" transform="translate(0,0)"/>
<path d="" fill="#FF4040" transform="translate(0,0)"/>
<path d="" fill="#FF4040" transform="translate(0,0)"/>
<path d="" fill="#FF4040" transform="translate(0,0)"/>
<path d="" fill="#FF4040" transform="translate(0,0)"/>
<path d="" fill="#FF4040" transform="translate(0,0)"/>
<path d="" fill="#FF4040" transform="translate(0,0)"/>
<path d="" fill="#FF4040" transform="translate(0,0)"/>
<path d="" fill="#FF4040" transform="translate(0,0)"/>
<path d="" fill="#FF4040" transform="translate(0,0)"/>
<path d="" fill="#FF4040" transform="translate(0,0)"/>
<path d="" fill="#FF4040" transform="translate(0,0)"/>
<path d="" fill="#FF8000" transform="translate(0,0)"/>
<path d="" fill="#FF4040" transform="translate(0,0)"/>
<path d="" fill="#FF8000" transform="translate(0,0)"/>
<path d="" fill="#FF8000" transform="translate(0,0)"/>
<path d="" fill="#FF8000" transform="translate(0,0)"/>
<path d="" fill="#FF8000" transform="translate(0,0)"/>
<path d="" fill="#FF8000" transform="translate(0,0)"/>
<path d="" fill="#FF8000" transform="translate(0,0)"/>
<path d="" fill="#FF8000" transform="translate(0,0)"/>
<path d="" fill="#FF4040" transform="translate(0,0)"/>
<path d="" fill="#FF4040" transform="translate(0,0)"/>
<path d="" fill="#FF4040" transform="translate(0,0)"/>
<path d="" fill="#FF552B" transform="translate(0,0)"/>
<path d="" fill="#FF552B" transform="translate(0,0)"/>
<path d="" fill="#FF4040" transform="translate(0,0)"/>
<path d="" fill="#FF4040" transform="translate(0,0)"/>
<path d="" fill="#FF8000" transform="translate(0,0)"/>
<path d="" fill="#FF4040" transform="translate(0,0)"/>
<path d="" fill="#FF8000" transform="translate(0,0)"/>
<path d="" fill="#FF8000" transform="translate(0,0)"/>
<path d="" fill="#FF4040" transform="translate(0,0)"/>
<path d="" fill="#FF4040" transform="translate(0,0)"/>
<path d="" fill="#FF8000" transform="translate(0,0)"/>
<path d="" fill="#FF8000" transform="translate(0,0)"/>
<path d="" fill="#FF8000" transform="translate(0,0)"/>
<path d="" fill="#FF4040" transform="translate(0,0)"/>
<path d="" fill="#FF552B" transform="translate(0,0)"/>
<path d="" fill="#FF4040" transform="translate(0,0)"/>
<path d="" fill="#FF8000" transform="translate(0,0)"/>
<path d="" fill="#FF4040" transform="translate(0,0)"/>
<path d="" fill="#FF8000" transform="translate(0,0)"/>
<path d="" fill="#FF8000" transform="translate(0,0)"/>
<path d="" fill="#FF8000" transform="translate(0,0)"/>
<path d="" fill="#FF8000" transform="translate(0,0)"/>
<path d="" fill="#FF8000" transform="translate(0,0)"/>
<path d="" fill="#FF8000" transform="translate(0,0)"/>
<path d="" fill="#FF8000" transform="translate(0,0)"/>
<path d="" fill="#FF4040" transform="translate(0,0)"/>
<path d="" fill="#FF4040" transform="translate(0,0)"/>
<path d="" fill="#FF4040" transform="translate(0,0)"/>
<path d="" fill="#FF4040" transform="translate(0,0)"/>
<path d="" fill="#FF4040" transform="translate(0,0)"/>
<path d="" fill="#FF4040" transform="translate(0,0)"/>
<path d="" fill="#FF4040" transform="translate(0,0)"/>
<path d="" fill="#FF4040" transform="translate(0,0)"/>
<path d="" fill="#FF4040" transform="translate(0,0)"/>
<path d="" fill="#FF4040" transform="translate(0,0)"/>
<path d="" fill="#FF4040" transform="translate(0,0)"/>
<path d="" fill="#FF8000" transform="translate(0,0)"/>
<path d="" fill="#FF4040" transform="translate(0,0)"/>
<path d="" fill="#FF8000" transform="translate(0,0)"/>
<path d="" fill="#FF8000" transform="translate(0,0)"/>
<path d="" fill="#FF8000" transform="translate(0,0)"/>
<path d="" fill="#FF8000" transform="translate(0,0)"/>
<path d="" fill="#FF8000" transform="translate(0,0)"/>
<path d="" fill="#FF8000" transform="translate(0,0)"/>
<path d="" fill="#FF4040" transform="translate(0,0)"/>
<path d="" fill="#FF8040" transform="translate(0,0)"/>
<path d="" fill="#FF4040" transform="translate(0,0)"/>
<path d="" fill="#FF8040" transform="translate(0,0)"/>
<path d="" fill="#FF552B" transform="translate(0,0)"/>
<path d="" fill="#FF552B" transform="translate(0,0)"/>
<path d="" fill="#FF4040" transform="translate(0,0)"/>
<path d="" fill="#FF4040" transform="translate(0,0)"/>
<path d="" fill="#FF8000" transform="translate(0,0)"/>
<path d="" fill="#FF8000" transform="translate(0,0)"/>
<path d="" fill="#FF8000" transform="translate(0,0)"/>
<path d="" fill="#FF8000" transform="translate(0,0)"/>
<path d="" fill="#FF8000" transform="translate(0,0)"/>
<path d="" fill="#80FF80" transform="translate(0,0)"/>
<path d="" fill="#40BF40" transform="translate(0,0)"/>
<path d="" fill="#40BF40" transform="translate(0,0)"/>
<path d="" fill="#40BF40" transform="translate(0,0)"/>
<path d="" fill="#40BF40" transform="translate(0,0)"/>
<path d="" fill="#80BF40" transform="translate(0,0)"/>
<path d="" fill="#60DF40" transform="translate(0,0)"/>
<path d="" fill="#40BF40" transform="translate(0,0)"/>
<path d="" fill="#40BF40" transform="translate(0,0)"/>
<path d="" fill="#40BF40" transform="translate(0,0)"/>
<path d="" fill="#80FF80" transform="translate(0,0)"/>
<path d="" fill="#40BF40" transform="translate(0,0)"/>
<path d="" fill="#80FF80" transform="translate(0,0)"/>
<path d="" fill="#40BF40" transform="translate(0,0)"/>
<path d="" fill="#40BF40" transform="translate(0,0)"/>
<path d="" fill="#55D555" transform="translate(0,0)"/>
<path d="" fill="#40BF40" transform="translate(0,0)"/>
<path d="" fill="#40BF40" transform="translate(0,0)"/>
<path d="" fill="#40BF40" transform="translate(0,0)"/>
<path d="" fill="#55D555" transform="translate(0,0)"/>
<path d="" fill="#80FF80" transform="translate(0,0)"/>
<path d="" fill="#40BF40" transform="translate(0,0)"/>
<path d="" fill="#80FF80" transform="translate(0,0)"/>
<path d="" fill="#80FF80" transform="translate(0,0)"/>
<path d="" fill="#80FF80" transform="translate(0,0)"/>
<path d="" fill="#40BF40" transform="translate(0,0)"/>
<path d="" fill="#40BF40" transform="translate(0,0)"/>
<path d="" fill="#40BF40" transform="translate(0,0)"/>
<path d="" fill="#40BF40" transform="translate(0,0)"/>
<path d="" fill="#60DF40" transform="translate(0,0)"/>
<path d="" fill="#55D555" transform="translate(0,0)"/>
<path d="" fill="#40BF40" transform="translate(0,0)"/>
<path d="" fill="#40BF40" transform="translate(0,0)"/>
<path d="" fill="#80FF80" transform="translate(0,0)"/>
<path d="" fill="#40BF40" transform="translate(0,0)"/>
<path d="" fill="#80FF80" transform="translate(0,0)"/>
<path d="" fill="#80FF80" transform="translate(0,0)"/>
<path d="" fill="#40BF40" transform="translate(0,0)"/>
<path d="" fill="#40BF40" transform="translate(0,0)"/>
<path d="" fill="#80FF40" transform="translate(0,0)"/>
<path d="" fill="#80FF40" transform="translate(0,0)"/>
<path d="" fill="#40BF40" transform="translate(0,0)"/>
<path d="" fill="#80FF40" transform="translate(0,0)"/>
<path d="" fill="#55D555" transform="translate(0,0)"/>
<path d="" fill="#40BF40" transform="translate(0,0)"/>
<path d="" fill="#40BF40" transform="translate(0,0)"/>
<path d="" fill="#80FF80" transform="translate(0,0)"/>
<path d="" fill="#40BF40" transform="translate(0,0)"/>
<path d="" fill="#40BF40" transform="translate(0,0)"/>
<path d="" fill="#40BF40" transform="translate(0,0)"/>
<path d="" fill="#80FF80" transform="translate(0,0)"/>
<path d="" fill="#55D555" transform="translate(0,0)"/>
<path d="" fill="#40BF40" transform="translate(0,0)"/>
<path d="" fill="#40BF40" transform="translate(0,0)"/>
<path d="" fill="#40BF40" transform="translate(0,0)"/>
<path d="" fill="#55D555" transform="translate(0,0)"/>
<path d="" fill="#80FF80" transform="translate(0,0)"/>
<path d="" fill="#40BF40" transform="translate(0,0)"/>
<path d="" fill="#40BF40" transform="translate(0,0)"/>
<path d="" fill="#80FF80" transform="translate(0,0)"/>
<path d="" fill="#80FF80" transform="translate(0,0)"/>
<path d="" fill="#40BF40" transform="translate(0,0)"/>
<path d="" fill="#40BF40" transform="translate(0,0)"/>
<path d="" fill="#40BF40" transform="translate(0,0)"/>
<path d="" fill="#40BF40" transform="translate(0,0)"/>
<path d="" fill="#60DF40" transform="translate(0,0)"/>
<path d="" fill="#60DF40" transform="translate(0,0)"/>
<path d="" fill="#80FF40" transform="translate(0,0)"/>
<path d="" fill="#80BF40" transform="translate(0,0)"/>
<path d="" fill="#80FF80" transform="translate(0,0)"/>
<path d="" fill="#80FF80" transform="translate(0,0)"/>
<path d="" fill="#80FF80" transform="translate(0,0)"/>
<path d="" fill="#40BF40" transform="translate(0,0)"/>
<path d="" fill="#40BF40" transform="translate(0,0)"/>
<path d="" fill="#40BF40" transform="translate(0,0)"/>
<path d="" fill="#40BF40" transform="translate(0,0)"/>
<path d="" fill="#80BF40" transform="translate(0,0)"/>
<path d="" fill="#55D555" transform="translate(0,0)"/>
<path d="" fill="#80BF40" transform="translate(0,0)"/>
<path d="" fill="#60DF40" transform="translate(0,0)"/>
<path d="" fill="#80FF80" transform="translate(0,0)"/>
<path d="" fill="#80BF40" transform="translate(0,0)"/>
<path d="" fill="#80FF80" transform="translate(0,0)"/>
<path d="" fill="#80FF80" transform="translate(0,0)"/>
<path d="" fill="#40BF40" transform="translate(0,0)"/>
<path d="" fill="#40BF40" transform="translate(0,0)"/>
<path d="" fill="#80FF80" transform="translate(0,0)"/>
<path d="" fill="#40BF40" transform="translate(0,0)"/>
<path d="" fill="#55D555" transform="translate(0,0)"/>
<path d="" fill="#40BF40" transform="translate(0,0)"/>
<path d="" fill="#55D555" transform="translate(0,0)"/>
<path d="" fill="#40BF40" transform="translate(0,0)"/>
<path d="" fill="#40BF40" transform="translate(0,0)"/>
<path d="" fill="#40BF40" transform="translate(0,0)"/>
<path d="" fill="#80FF80" transform="translate(0,0)"/>
<path d="" fill="#80FF80" transform="translate(0,0)"/>
<path d="" fill="#40BF40" transform="translate(0,0)"/>
<path d="" fill="#80FF80" transform="translate(0,0)"/>
<path d="" fill="#40BF40" transform="translate(0,0)"/>
<path d="" fill="#40BF40" transform="translate(0,0)"/>
<path d="" fill="#80FF40" transform="translate(0,0)"/>
</svg>
